<?xml version="1.0" encoding="utf-8"?>
<!-- Generator: Adobe Illustrator 27.7.0, SVG Export Plug-In . SVG Version: 6.00 Build 0)  -->
<svg version="1.1" id="Layer_1" xmlns="http://www.w3.org/2000/svg" xmlns:xlink="http://www.w3.org/1999/xlink" x="0px" y="0px"
	 viewBox="0 0 31.9 32" style="enable-background:new 0 0 31.9 32;" xml:space="preserve">
<polygon points="6.4,30.6 10.7,23.3 14.9,16 19.1,8.7 19.8,7.5 20.1,8.7 21.4,13.5 19.9,16 15.7,23.3 11.5,30.6 16.6,30.6 
	20.8,23.3 23,19.5 24,23.3 25.9,30.6 30.5,30.6 28.5,23.3 26.6,16 26.1,14.1 29.2,8.7 24.6,8.7 24.5,8.2 22.9,2.2 22.7,1.4 
	18.3,1.4 18.2,1.6 14,8.7 9.8,16 5.6,23.3 1.4,30.6 "/>
</svg>
